<svg xmlns="http://www.w3.org/2000/svg" width="48" height="47" viewBox="0 0 48 47" fill="none">
  <g clip-path="url(#clip0_139_24)">
    <path d="M23.9372 45.6718V26.7405C23.9372 26.1604 23.4621 25.6887 22.8777 25.6887H6.37342C6.07305 25.6887 5.78905 25.8134 5.58698 26.0357C5.38491 26.258 5.29207 26.5507 5.31938 26.8489C5.50506 28.5729 5.63614 30.2101 5.72352 31.7064C5.80544 33.2027 5.84913 34.5472 5.84913 35.7019C5.84913 38.3746 5.5706 40.2938 5.02446 41.416C4.58209 42.3214 3.97042 42.728 3.04198 42.728C2.55592 42.728 2.02617 42.6087 1.46365 42.381C1.13597 42.2455 0.764592 42.2834 0.469678 42.4786C0.174764 42.6738 0 43.0045 0 43.3514V45.3953C0 45.7748 0.202071 46.1217 0.535214 46.306C0.988508 46.5663 1.50188 46.7506 2.05894 46.8536C2.56138 46.9512 3.09114 47 3.63181 47C5.17192 47 6.46626 46.5663 7.47116 45.7151C8.44874 44.8857 9.16964 43.6279 9.61201 41.969C10.0216 40.4293 10.2346 38.4397 10.2346 36.0543C10.2346 34.8779 10.1964 33.6039 10.1199 32.2594C10.0762 31.5058 10.0216 30.7143 9.96154 29.8848H19.437V45.6718C19.437 46.2518 19.9122 46.7235 20.4965 46.7235H22.8886C23.473 46.7235 23.9481 46.2518 23.9481 45.6718H23.9372Z" fill="white"/>
    <path d="M47.9944 13.9034V10.0869C47.9278 8.20354 47.4894 6.52516 46.6847 5.07943C45.8966 3.65032 44.7866 2.49817 43.388 1.63406C43.2159 1.52882 43.0439 1.42357 42.8663 1.3294C41.2402 0.448674 39.2699 0 37.0278 0C34.7856 0 32.7876 0.448674 31.1448 1.32387C30.9617 1.42357 30.7841 1.52328 30.612 1.63406C29.2134 2.49817 28.0979 3.6614 27.3098 5.09051C26.555 6.45869 26.1276 8.03182 26.0222 9.76559C26.0167 9.8376 26.0167 11.5935 26.0111 14.1249C26.0056 20.9714 26 36.2152 26 36.4146C26 38.4973 26.444 40.3474 27.3153 41.9206C28.1978 43.5214 29.4909 44.7843 31.1448 45.6706C32.782 46.5569 34.7634 47 37.0278 47C39.2921 47 41.2402 46.5513 42.8663 45.6706C44.5146 44.7788 45.8022 43.5159 46.6902 41.9095C47.5616 40.3308 48 38.4807 48 36.4146C48 36.2928 48 20.5504 47.9944 13.9034ZM41.7175 41.3223C40.613 42.4523 39.0701 43.0007 37 43.0007C34.9299 43.0007 33.4092 42.4523 32.2936 41.3168C31.1781 40.1813 30.6065 38.5361 30.6065 36.4146C30.6065 36.3094 30.6065 28.2886 30.612 22.7217C30.612 19.7195 30.612 16.6342 30.612 14.2468C30.6176 11.732 30.6176 9.98715 30.6231 9.93176C30.7286 8.12599 31.2891 6.69688 32.2881 5.68321C33.4036 4.54767 34.941 3.99929 36.9944 3.99929C39.0479 3.99929 40.6019 4.54767 41.7119 5.67767C42.722 6.70796 43.277 8.16476 43.3713 10.0038C43.3713 10.0536 43.3713 11.7708 43.3713 14.2634C43.3769 16.6397 43.3769 19.7195 43.3769 22.7217C43.3769 28.2942 43.3769 36.326 43.3769 36.4146C43.3769 38.5361 42.8108 40.1868 41.7008 41.3223H41.7175Z" fill="white"/>
    <path d="M4.92051 5.49971H17.9131L7.6785 22.2028C7.46004 22.5552 7.45458 22.9998 7.65665 23.363C7.85872 23.7262 8.24648 23.9485 8.66155 23.9485H11.4632C11.8674 23.9485 12.2442 23.7371 12.4517 23.3955L23.7732 4.85999C23.8824 4.68108 23.9425 4.47507 23.9425 4.26364V2.14932C23.9425 1.51503 23.4236 1 22.7847 1H4.92051C4.28153 1 3.7627 1.51503 3.7627 2.14932V4.35038C3.7627 4.98468 4.28153 5.49971 4.92051 5.49971Z" fill="white"/>
  </g>
  <defs>
    <clipPath id="clip0_139_24">
      <rect width="48" height="47" fill="white"/>
    </clipPath>
  </defs>
</svg>