<svg width="304" height="358" viewBox="0 0 304 358" fill="none" xmlns="http://www.w3.org/2000/svg">
<path fill-rule="evenodd" clip-rule="evenodd" d="M123.397 346.169C124.313 348.967 125.856 351.356 128.041 353.24C133.313 357.786 141.122 358.482 147.637 357.295C156.99 355.575 168.868 348.544 166.775 336.886C164.865 326.279 156.925 314.799 152.385 305.011C147.899 295.374 141.737 280.631 146.63 270.092C147.336 268.563 148.409 267.253 149.848 266.447C155.041 263.539 160.928 268.331 164.211 272.194C167.612 276.208 171.026 280.207 174.545 284.098C193.618 305.257 218.093 327.126 246.466 309.352C260.346 300.657 258.383 268.427 238.16 275.088C224.045 279.73 213.344 278.023 199.753 273.436C191.041 270.488 182.616 266.079 174.611 261.478C165.833 256.441 157.278 250.981 148.592 245.766C137.682 239.213 126.288 232.756 114.371 228.443C107.503 225.958 100.125 224.211 92.97 222.9C86.6125 221.74 80.1241 220.88 73.6881 220.511C69.2012 220.252 63.694 220.116 59.2856 221.044C49.1606 223.187 40.5924 229.972 40.3307 241.479C40.1868 248.005 42.9862 254.421 47.7086 258.68C53.4644 263.853 61.0123 265 68.2855 263.321C73.7535 262.052 79.1038 259.799 84.3102 257.656C92.3159 254.352 101.46 250.503 110.224 251.144C123.227 252.1 130.618 256.523 127.675 270.802C122.259 296.943 113.979 319.481 123.41 346.183L123.397 346.169Z" fill="white"/>
<path fill-rule="evenodd" clip-rule="evenodd" d="M243.785 251.048C240.383 244.469 235.766 240.482 228.663 239.131C220.657 237.616 210.924 239.991 203.625 236.838C198.733 234.735 194.468 231.104 192.833 225.698C191.603 221.617 192.126 217.03 194.376 213.453C195.384 211.843 197.019 209.372 199.138 209.536C201.074 209.686 203.089 212.43 204.436 213.781C220.618 230.039 238.565 239.855 258.279 222.9C266.141 216.129 271.164 207.229 271.909 196.526C272.629 186.302 269.293 176.118 263.943 167.654C258.253 158.645 250.038 151.137 240.645 146.564C225.955 139.41 201.296 136.366 187.273 146.427C181.792 150.359 178.496 155.614 176.874 162.303C174.768 170.999 175.866 179.899 175.932 188.718C175.997 198.233 174.624 207.515 173.708 216.948C172.962 224.634 172.4 233.357 174.741 240.81C178.862 253.901 187.613 259.143 199.164 264.467C208.269 268.672 220.683 270.351 230.533 269.354C239.612 268.426 247.696 261.027 243.772 251.035L243.785 251.048ZM211.134 184.158C211.487 183.653 211.905 183.176 212.35 182.752C218.551 176.882 229.264 180.909 235.072 185.373C240.881 189.837 247.748 199.311 244.229 207.242C243.968 207.816 243.667 208.362 243.301 208.867C242.947 209.372 242.542 209.85 242.084 210.273C235.884 216.143 225.17 212.116 219.362 207.652C213.554 203.188 206.673 193.714 210.218 185.783C210.466 185.21 210.78 184.664 211.134 184.158Z" fill="white"/>
<path fill-rule="evenodd" clip-rule="evenodd" d="M115.169 212.389C124.666 206.437 132.162 196.881 133.156 185.059C133.954 175.599 130.945 160.679 126.707 152.365C125.399 149.799 123.241 144.379 126.236 142.168C128.499 140.502 131.639 142.332 133.444 143.902C136.754 146.796 139.134 151.314 140.626 155.478C145.662 169.538 148.893 188.008 139.344 200.895C135.236 206.437 131.534 213.549 131.547 220.743C131.547 225.548 133.313 230.08 137.068 232.988C140.259 235.459 144.249 236.251 148.147 235.623C153.118 234.831 157.488 231.841 160.889 228.06C168.999 219.009 169.601 203.584 168.947 191.912C168.868 190.411 168.751 188.923 168.62 187.435C167.547 175.19 165.022 163.586 163.126 151.519C160.065 132.134 157.487 108.109 137.748 99.058C133.235 96.9831 128.185 96.1231 123.267 96.2596C105.214 96.7373 89.5823 109.842 97.4311 129.814C98.4776 132.476 99.7596 135.042 101.133 137.527C104.325 143.246 108.132 148.543 111.467 154.167C114.385 159.082 117.184 164.678 117.472 170.562C117.511 171.258 117.511 171.968 117.472 172.664C117.105 179.394 114.712 185.66 108.838 189.059C103.292 192.281 96.2669 191.967 90.3672 190.015C86.966 188.895 83.905 187.23 80.7262 185.578C78.2146 184.281 75.4283 182.848 72.642 182.438C68.2859 181.797 63.6813 183.203 61.0912 187.093C58.7365 190.629 58.9458 194.943 60.6726 198.71C63.5374 204.976 70.1565 209.549 75.9385 212.471C87.6463 218.381 103.488 218.204 115.156 212.375L115.169 212.389Z" fill="white"/>
<path fill-rule="evenodd" clip-rule="evenodd" d="M213.62 27.2677C192.205 27.65 173.172 37.4241 162.445 57.2044C153.929 72.8894 152.02 93.4069 159.581 109.897C184.644 164.624 292.186 117.023 268.142 57.4638C264.375 48.1265 257.677 40.7549 249.292 35.7177C238.553 29.2608 225.877 27.0493 213.62 27.2541V27.2677ZM238.16 84.5337C242.124 95.0723 234.654 101.802 226.374 106.225C219.951 109.665 208.766 111.849 203.547 105.01C203.168 104.519 202.841 103.986 202.566 103.427C193.553 85.0661 229.095 67.47 238.095 84.3972C238.121 84.4382 238.134 84.4791 238.16 84.5337Z" fill="white"/>
<path fill-rule="evenodd" clip-rule="evenodd" d="M105.175 171.613C105.698 166.153 103.174 160.556 100.714 155.901C97.3 149.417 93.3364 143.342 90.0922 136.735C85.226 126.824 81.6024 114.552 87.9076 104.382C93.0748 96.0687 103.461 91.4546 112.03 88.0965C116.124 86.4857 120.284 85.025 124.365 83.4005C127.845 82.0218 131.482 80.4792 134.673 78.4589C143.948 72.5889 149.835 62.7875 150.41 51.4435C150.816 43.2802 148.121 33.2194 140.782 29.0286C135.197 25.8342 128.97 27.4587 123.764 30.6667C106.208 41.4783 97.1561 46.1469 76.5661 46.5019C70.117 46.6111 63.9426 46.0377 57.6244 44.8091C52.8366 43.8809 48.1142 42.584 43.3265 41.7513C38.0024 40.823 33.0969 40.7002 27.7466 41.6148C19.1783 43.0754 14.783 52.4947 15.6725 60.931C16.1827 65.7498 18.315 70.6505 21.2583 74.3636C25.0518 79.1551 30.1405 82.0764 36.0402 82.9501C46.2436 84.4517 58.8802 81.4484 68.665 78.4452C77.9789 75.5922 87.1097 71.9883 96.0835 68.1251C99.3015 66.7327 102.506 65.313 105.711 63.9069C107.124 63.2926 109.426 62.1732 110.905 61.8592C111.219 61.791 111.519 61.8592 111.781 62.064C112.187 62.378 112.474 62.8012 112.54 63.3335C112.71 64.7533 111.114 65.7771 110.133 66.4323C108.524 67.4971 106.823 68.4663 105.201 69.5175C90.9033 78.8138 72.7464 89.0521 63.1708 103.863C57.0488 113.337 54.9558 123.685 55.6752 135.015C56.7348 151.615 67.3046 169.525 81.8902 176.664C89.896 180.582 101.839 182.821 105.162 171.613H105.175Z" fill="white"/>
<path fill-rule="evenodd" clip-rule="evenodd" d="M154.675 0.320595C159.593 -1.6861 169.064 5.98576 172.858 16.1148C176.651 26.2439 174.65 36.5094 168.41 39.0622C162.17 41.6012 154.034 35.4583 150.24 25.3292C146.447 15.2002 149.756 2.31364 154.675 0.320595Z" fill="white"/>
<path fill-rule="evenodd" clip-rule="evenodd" d="M256.604 137.759C251.372 130.019 256.473 116.873 267.998 108.382C279.523 99.9049 297.876 97.8162 302.454 104.587C307.033 111.358 298.464 127.93 286.94 136.421C275.415 144.899 261.824 145.499 256.591 137.759H256.604Z" fill="white"/>
<path fill-rule="evenodd" clip-rule="evenodd" d="M267.004 149.977C270.144 144.994 278.699 145.076 286.116 150.154C293.546 155.232 299.394 166.262 297.078 170.085C294.763 173.907 282.192 173.293 274.762 168.201C267.331 163.123 263.865 154.959 266.991 149.963L267.004 149.977Z" fill="white"/>
<path fill-rule="evenodd" clip-rule="evenodd" d="M0.210438 181.36C-1.84333 173.784 11.4866 159.696 24.8818 155.737C38.2771 151.779 51.123 155.86 53.5692 164.87C56.0154 173.866 47.1201 184.377 33.7248 188.336C20.3164 192.295 2.26421 188.937 0.210438 181.36Z" fill="white"/>
<path fill-rule="evenodd" clip-rule="evenodd" d="M24.1491 126.305C25.9281 123.643 36.1446 124.585 42.0705 128.913C47.9963 133.24 50.6257 139.984 47.9571 143.956C45.2885 147.929 38.3161 147.642 32.4034 143.315C26.4775 138.987 22.37 128.967 24.1621 126.305H24.1491Z" fill="white"/>
<path fill-rule="evenodd" clip-rule="evenodd" d="M188.817 3.76049C191.878 4.55225 193.448 11.8282 191.983 18.0394C190.518 24.2507 186.227 28.4961 182.394 27.5132C178.561 26.5304 176.638 20.7014 178.103 14.4902C179.568 8.27897 185.756 2.98238 188.817 3.77414V3.76049Z" fill="white"/>
<path fill-rule="evenodd" clip-rule="evenodd" d="M251.477 243.281C250.705 238.49 255.846 233.589 262.976 232.319C270.105 231.063 279.053 234.858 279.667 238.572C280.269 242.285 272.93 248.4 265.801 249.67C258.672 250.926 252.262 248.073 251.477 243.281Z" fill="white"/>
</svg>
