<svg xmlns="http://www.w3.org/2000/svg" width="185" height="119" viewBox="0 0 185 119" fill="none">
  <g clip-path="url(#clip0_139_109)">
    <mask id="mask0_139_109" style="mask-type:luminance" maskUnits="userSpaceOnUse" x="0" y="0" width="185" height="119">
      <path d="M185 0H0V119H185V0Z" fill="white"/>
    </mask>
    <g mask="url(#mask0_139_109)">
      <path d="M70.1051 71.5022C69.8157 71.3005 69.4178 71.3719 69.2166 71.6615C69.0153 71.9513 69.0869 72.35 69.3763 72.5517L70.1051 71.5022ZM93.4525 21.744L94.0216 22.0328L94.0223 22.0318L93.4525 21.744ZM108.929 1.91286L109.501 2.19663L109.6 1.99526L109.552 1.77579L108.929 1.91286ZM86.1953 58.1436L86.1199 57.5086L86.0991 57.511L86.0792 57.5146L86.1953 58.1436ZM97.373 32.5732L97.6431 33.153L97.6513 33.1489L97.373 32.5732ZM70.135 118.082L70.2558 118.709L70.2984 118.701L70.3394 118.688L70.135 118.082ZM106.646 60.7032L106.248 60.2028L106.18 60.2573L106.128 60.3284L106.646 60.7032ZM114.449 51.8211L115.004 52.1395L115.01 52.1265L114.449 51.8211ZM119.664 55.4095L119.104 55.7155L119.167 55.8308L119.27 55.912L119.664 55.4095ZM135.281 49.3385L135.41 48.7121L135.103 48.6486L134.864 48.8536L135.281 49.3385ZM139.218 56.3828C139.461 56.1273 139.451 55.7225 139.196 55.4788C138.94 55.235 138.536 55.2445 138.293 55.4999L139.218 56.3828ZM155.108 45.9084C154.875 46.172 154.897 46.5763 155.16 46.8113C155.424 47.0463 155.827 47.0231 156.062 46.7595L155.108 45.9084ZM183.977 24.9885C184.313 24.8807 184.497 24.5206 184.389 24.1844C184.28 23.8482 183.921 23.663 183.586 23.7709L183.977 24.9885ZM0.732043 81.0793C0.528029 81.3668 0.595743 81.766 0.883293 81.9707C1.17083 82.1754 1.5693 82.1082 1.77332 81.8199L0.732043 81.0793ZM32.0889 46.434L32.6463 46.7462C32.8034 46.4646 32.7262 46.1095 32.4662 45.9184C32.2063 45.7275 31.8451 45.7605 31.6242 45.9954L32.0889 46.434ZM47.8392 48.299L48.4234 48.5572C48.5572 48.253 48.4359 47.8966 48.1442 47.7376C47.8527 47.5784 47.4883 47.6696 47.3058 47.9473L47.8392 48.299ZM44.8588 56.672C44.9634 57.0094 45.3211 57.198 45.6578 57.0935C45.9945 56.989 46.1827 56.6306 46.0781 56.2934L44.8588 56.672ZM69.3763 72.5517C69.773 72.8284 70.2957 72.9309 70.8585 72.7721C71.4063 72.6176 71.9547 72.2284 72.4861 71.5954C73.542 70.3376 74.6617 67.9614 75.6651 63.7925L74.4242 63.492C73.4354 67.6001 72.3723 69.7432 71.5086 70.7719C71.0804 71.2821 70.7349 71.4781 70.5116 71.5412C70.3032 71.5999 70.1773 71.5526 70.1051 71.5022L69.3763 72.5517ZM75.6651 63.7925C76.6442 59.7246 79.8913 51.937 83.5868 43.7984C87.272 35.6827 91.3724 27.2855 94.0216 22.0328L92.882 21.4553C90.2269 26.7199 86.1184 35.1332 82.425 43.2682C78.7413 51.3799 75.4372 59.2829 74.4242 63.492L75.6651 63.7925ZM94.0223 22.0318C95.5978 18.8959 99.2075 12.8664 102.542 8.17318C104.214 5.81926 105.788 3.84373 106.984 2.73383C107.281 2.45888 107.542 2.24822 107.766 2.10074C107.996 1.94901 108.151 1.88719 108.241 1.86961C108.312 1.85536 108.28 1.87866 108.233 1.84146C108.209 1.82193 108.261 1.84696 108.305 2.04993L109.552 1.77579C109.476 1.42897 109.326 1.07836 109.028 0.84078C108.708 0.585577 108.329 0.548437 107.993 0.614867C107.673 0.677939 107.358 0.837876 107.063 1.03244C106.761 1.23127 106.444 1.49147 106.116 1.79545C104.817 3.00116 103.18 5.06982 101.501 7.43116C98.136 12.1685 94.4907 18.2536 92.882 21.4563L94.0223 22.0318ZM108.356 1.62908C106.532 5.32385 103.687 11.2347 101.08 16.9631C98.4786 22.6751 96.0914 28.2544 95.2026 31.2609L96.4273 31.6246C97.285 28.7199 99.6323 23.2244 102.242 17.4944C104.843 11.7806 107.681 5.88215 109.501 2.19663L108.356 1.62908ZM95.2026 31.2609C94.1096 34.9626 92.2123 41.5641 90.3356 47.2736C89.3966 50.1301 88.4686 52.7466 87.6539 54.6578C87.2454 55.6166 86.8747 56.3756 86.555 56.8936C86.3937 57.154 86.2597 57.331 86.1546 57.4382C86.034 57.5621 86.0244 57.52 86.1199 57.5086L86.2716 58.7786C86.6186 58.7372 86.8872 58.5179 87.0678 58.3323C87.2654 58.1303 87.4563 57.8656 87.6406 57.5672C88.0113 56.9675 88.4116 56.1393 88.8283 55.1607C89.6652 53.1978 90.6065 50.5394 91.5485 47.6743C93.4325 41.9408 95.338 35.312 96.4273 31.6246L95.2026 31.2609ZM86.0792 57.5146C81.1345 58.4255 75.0902 58.3646 70.78 57.3921C68.6053 56.9014 66.9825 56.2022 66.1325 55.3726C65.7215 54.9716 65.5213 54.5702 65.4854 54.167C65.4492 53.7608 65.5714 53.2568 65.9889 52.6375L64.9305 51.9213C64.3996 52.7092 64.1444 53.5018 64.2136 54.2797C64.2832 55.0607 64.6711 55.7313 65.2419 56.2883C66.3554 57.3751 68.2714 58.1368 70.5002 58.6396C74.9969 59.6544 81.2174 59.711 86.3115 58.7725L86.0792 57.5146ZM65.9889 52.6375C66.8694 51.3311 68.6908 49.7154 71.1474 47.9381C73.5855 46.174 76.5872 44.2946 79.7633 42.4526C86.1147 38.7695 93.1269 35.2588 97.6431 33.153L97.1037 31.9934C92.5623 34.111 85.5153 37.639 79.1232 41.3458C75.9271 43.1989 72.8856 45.1023 70.3994 46.9011C67.9317 48.6865 65.9472 50.4132 64.9305 51.9213L65.9889 52.6375ZM97.6513 33.1489C98.6377 32.6714 100.035 32.3445 101.136 32.715C101.662 32.8921 102.138 33.2328 102.497 33.837C102.862 34.4532 103.127 35.3802 103.145 36.7527L104.422 36.7364C104.402 35.2181 104.109 34.0509 103.594 33.184C103.072 32.3047 102.344 31.7729 101.541 31.5026C99.9823 30.9781 98.2137 31.4562 97.0955 31.9973L97.6513 33.1489ZM70.0141 117.453C68.8964 117.668 67.6816 117.613 66.6374 117.132C65.6136 116.66 64.6986 115.755 64.1853 114.152C63.6651 112.528 63.5535 110.167 64.2193 106.818C64.884 103.474 66.3158 99.185 68.8362 93.7303L67.6774 93.1922C65.1308 98.7046 63.6578 103.094 62.9671 106.567C62.2774 110.038 62.3595 112.636 62.9696 114.542C63.5866 116.468 64.7382 117.664 66.1045 118.294C67.4505 118.914 68.9492 118.96 70.2558 118.709L70.0141 117.453ZM103.145 36.7527C103.156 37.5352 102.945 39.1843 102.512 41.5501C102.084 43.8947 101.447 46.8916 100.63 50.3376L101.871 50.6342C102.693 47.173 103.334 44.1536 103.768 41.7814C104.198 39.4306 104.434 37.6625 104.422 36.7364L103.145 36.7527ZM100.63 50.3376C97.988 61.4714 93.4681 77.2388 87.9921 90.7604C85.2533 97.5227 82.2837 103.702 79.2016 108.454C76.1003 113.237 72.9617 116.451 69.9304 117.476L70.3394 118.688C73.8088 117.515 77.1488 113.968 80.2731 109.151C83.4174 104.303 86.4218 98.0401 89.1753 91.2416C94.6831 77.6416 99.2208 61.8083 101.871 50.6342L100.63 50.3376ZM68.8362 93.7303C78.9197 71.9051 94.931 56.128 101.638 50.994L100.863 49.9777C94.0201 55.2151 77.8622 71.148 67.6774 93.1922L68.8362 93.7303ZM101.462 51.0894C101.516 51.0705 101.882 51.0005 102.403 51.6387C102.93 52.2851 103.537 53.5911 103.923 56.0543L105.184 55.8569C104.783 53.2938 104.125 51.7294 103.391 50.8297C102.65 49.9219 101.758 49.6302 101.04 49.8822L101.462 51.0894ZM103.923 56.0543C104.318 58.5739 104.762 59.9995 105.211 60.7385C105.428 61.0952 105.731 61.4331 106.157 61.5127C106.645 61.604 106.992 61.3158 107.163 61.0781L106.128 60.3284C106.115 60.3465 106.206 60.2212 106.391 60.2556C106.513 60.2784 106.463 60.3397 106.302 60.074C105.994 59.5679 105.577 58.3638 105.184 55.8569L103.923 56.0543ZM107.043 61.2037C108.742 59.8499 112.707 56.1538 115.003 52.1393L113.895 51.5028C111.711 55.3198 107.885 58.8981 106.248 60.2028L107.043 61.2037ZM115.01 52.1265C115.093 51.974 115.209 51.862 115.337 51.8081C115.45 51.7604 115.638 51.7295 115.94 51.8545C116.6 52.1281 117.679 53.0997 119.104 55.7155L120.224 55.1035C118.778 52.4483 117.52 51.1257 116.427 50.6728C115.852 50.4347 115.308 50.4324 114.841 50.6293C114.389 50.8198 114.076 51.1682 113.888 51.5158L115.01 52.1265ZM119.27 55.912C119.859 56.3772 120.781 56.3542 121.762 55.7646C122.748 55.1716 123.916 53.9543 125.223 51.7477L124.126 51.0945C122.868 53.2164 121.832 54.2304 121.104 54.668C120.371 55.1091 120.07 54.916 120.058 54.9072L119.27 55.912ZM125.223 51.7477C125.237 51.725 125.236 51.7346 125.214 51.7488C125.191 51.7634 125.176 51.7637 125.187 51.7626C125.234 51.7579 125.351 51.7691 125.609 51.8508C126.05 51.9905 126.861 52.3366 127.763 52.5259C128.71 52.7249 129.855 52.7849 131.196 52.4153C132.532 52.0472 134.029 51.2623 135.698 49.8233L134.864 48.8536C133.307 50.1963 131.975 50.8741 130.857 51.1823C129.744 51.4889 128.808 51.4389 128.023 51.2742C127.192 51.0997 126.616 50.8291 125.993 50.6315C125.719 50.5446 125.385 50.4571 125.058 50.4902C124.668 50.5294 124.34 50.7322 124.126 51.0945L125.223 51.7477ZM135.153 49.9646C135.426 50.021 135.732 50.3159 136.018 51.0917C136.288 51.8268 136.457 52.7637 136.617 53.6944C136.694 54.1482 136.771 54.6023 136.856 55.0028C136.94 55.3961 137.04 55.7835 137.18 56.0917C137.3 56.3586 137.548 56.79 138.044 56.8831C138.55 56.9779 138.955 56.6589 139.218 56.3828L138.293 55.4999C138.078 55.7253 138.096 55.5919 138.279 55.6261C138.452 55.6586 138.442 55.7828 138.342 55.5655C138.263 55.389 138.186 55.1142 138.104 54.7375C138.026 54.3674 137.954 53.9428 137.874 53.4783C137.719 52.5725 137.534 51.5151 137.215 50.6503C136.912 49.8261 136.395 48.9152 135.41 48.7121L135.153 49.9646ZM156.062 46.7595C158.72 43.771 163.319 39.0849 168.458 34.761C173.615 30.4229 179.246 26.5093 183.977 24.9885L183.586 23.7709C178.604 25.3724 172.812 29.4272 167.636 33.7815C162.444 38.1498 157.802 42.8799 155.108 45.9084L156.062 46.7595ZM1.77332 81.8199C4.95981 77.3238 12.6397 68.6003 19.5537 60.971C23.0043 57.1632 26.2545 53.6383 28.6422 51.0654C29.836 49.779 30.814 48.7307 31.4936 48.004C31.8333 47.6406 32.0984 47.3577 32.2786 47.1657C32.3686 47.0697 32.4375 46.9963 32.4837 46.9471C32.5069 46.9225 32.5244 46.9038 32.5361 46.8914C32.542 46.8852 32.5463 46.8804 32.5493 46.8774C32.5508 46.8758 32.5518 46.8746 32.5526 46.8739C32.553 46.8735 32.5532 46.8732 32.5534 46.873C32.5536 46.8727 32.5536 46.8727 32.0889 46.434C31.6242 45.9954 31.6244 45.9951 31.6242 45.9954C31.6239 45.9955 31.6234 45.9961 31.623 45.9965C31.6223 45.9974 31.6212 45.9985 31.6197 46.0001C31.6167 46.0033 31.6123 46.0079 31.6063 46.0144C31.5945 46.0269 31.5769 46.0456 31.5537 46.0703C31.5073 46.1198 31.4382 46.1933 31.3479 46.2896C31.1674 46.482 30.9018 46.7655 30.5615 47.1293C29.881 47.857 28.9019 48.9067 27.7068 50.1944C25.3169 52.7698 22.063 56.2985 18.608 60.111C11.7105 67.7223 3.97222 76.507 0.732043 81.0793L1.77332 81.8199ZM32.0889 46.434C31.5316 46.1218 31.5315 46.1219 31.5315 46.1222C31.5313 46.1225 31.5311 46.1227 31.5308 46.1232C31.5303 46.124 31.5298 46.1252 31.5288 46.1269C31.5271 46.13 31.5244 46.1346 31.521 46.1408C31.5143 46.153 31.5042 46.1711 31.4911 46.1947C31.4649 46.2423 31.4263 46.3123 31.3766 46.4035C31.2768 46.5858 31.1319 46.8528 30.9505 47.1925C30.5876 47.8716 30.0785 48.8419 29.4922 50.0081C28.3204 52.3388 26.8359 55.4607 25.5943 58.6107C24.3589 61.7452 23.3397 64.9666 23.1379 67.4769C23.0377 68.7262 23.1316 69.8858 23.5777 70.7817C24.0501 71.7299 24.8869 72.3183 26.072 72.4262L26.1866 71.1526C25.4243 71.0832 24.9867 70.7464 24.7201 70.2112C24.4274 69.6235 24.3173 68.7412 24.4106 67.5803C24.5962 65.2699 25.5537 62.1967 26.7819 59.0811C28.004 55.9807 29.4697 52.8967 30.6325 50.5841C31.2135 49.4287 31.7176 48.4679 32.0762 47.7963C32.2556 47.4607 32.3985 47.1974 32.4963 47.0184C32.5453 46.929 32.583 46.8604 32.6083 46.8147C32.621 46.7917 32.6306 46.7744 32.6369 46.763C32.6401 46.7572 32.6426 46.7529 32.6441 46.7502C32.6449 46.7488 32.6454 46.7477 32.6458 46.7471C32.6459 46.7467 32.6462 46.7464 32.6463 46.7462C32.6464 46.7462 32.6463 46.7462 32.0889 46.434ZM26.072 72.4262C29.2817 72.7183 31.6982 72.3703 33.663 71.3705C35.6277 70.3708 37.0619 68.7589 38.3792 66.6807C39.6877 64.6167 40.925 62.0175 42.4479 59.0185C43.9793 56.003 45.8232 52.5322 48.3725 48.6508L47.3058 47.9473C44.7191 51.8859 42.8506 55.4042 41.3099 58.438C39.7609 61.4881 38.5668 63.9983 37.3012 65.9946C36.0445 67.977 34.7619 69.3765 33.0841 70.2303C31.4061 71.0841 29.2542 71.4318 26.1866 71.1526L26.072 72.4262ZM47.2551 48.041C46.7693 49.1455 46.0666 50.8846 45.5347 52.5196C45.2692 53.336 45.0413 54.1412 44.9061 54.8354C44.8384 55.1826 44.7914 55.5141 44.7767 55.8126C44.7625 56.1025 44.776 56.4049 44.8588 56.672L46.0781 56.2934C46.0594 56.2331 46.0409 56.1023 46.052 55.8765C46.0627 55.6593 46.0985 55.3923 46.1591 55.0814C46.2804 54.4595 46.4908 53.7097 46.7487 52.9167C47.2639 51.3328 47.9495 49.6348 48.4234 48.5572L47.2551 48.041Z" fill="#0D1421"/>
    </g>
  </g>
  <defs>
    <clipPath id="clip0_139_109">
      <rect width="185" height="119" fill="white"/>
    </clipPath>
  </defs>
</svg>