<svg xmlns="http://www.w3.org/2000/svg" width="96" height="46" viewBox="0 0 96 46" fill="none">
  <path d="M0.639812 2.73883H7.84879L2.16966 12.1467C2.0493 12.3478 2.04613 12.5968 2.15699 12.7979C2.27102 13.0022 2.48323 13.1267 2.71445 13.1267H4.26964C4.49452 13.1267 4.7004 13.0086 4.8176 12.8138L11.0985 2.38128C11.1587 2.27913 11.1904 2.16421 11.1904 2.04609V0.852154C11.1904 0.494612 10.9021 0.207301 10.5506 0.207301H0.639812C0.288232 0.204109 0 0.494612 0 0.852154V2.09397C0 2.45152 0.288232 2.73883 0.639812 2.73883Z" fill="white"/>
  <path d="M14.4371 12.4948C15.4127 13.0503 16.5909 13.3312 17.9371 13.3312C19.2832 13.3312 20.4457 13.0503 21.4149 12.4948C22.3968 11.933 23.1633 11.1349 23.6891 10.1229C24.2085 9.13009 24.4714 7.96489 24.4714 6.6656C24.4714 5.36632 24.2085 4.18835 23.6891 3.19872C23.1601 2.19314 22.3968 1.39824 21.4149 0.836393C20.4457 0.280926 19.2737 0 17.9371 0C16.6005 0 15.4127 0.280926 14.4371 0.836393C13.4489 1.39824 12.6824 2.19633 12.1534 3.2083C11.634 4.20431 11.3711 5.36632 11.3711 6.6656C11.3711 7.96489 11.634 9.14286 12.1534 10.1325C12.6824 11.1381 13.4489 11.933 14.4371 12.4948ZM14.1172 6.6656C14.1172 5.33121 14.4561 4.2937 15.1213 3.57861C15.7864 2.86672 16.7018 2.51876 17.9244 2.51876C19.147 2.51876 20.0751 2.86353 20.7339 3.57861C21.3959 4.2937 21.7316 5.3344 21.7316 6.6656C21.7316 7.99681 21.3959 9.03751 20.7339 9.7526C20.0751 10.4645 19.1565 10.8125 17.9244 10.8125C16.6923 10.8125 15.7864 10.4645 15.1213 9.7526C14.4561 9.03751 14.1172 8 14.1172 6.6656Z" fill="white"/>
  <path d="M29.1649 12.8522C29.4278 13.0118 29.7128 13.1267 30.0106 13.1938C30.2861 13.2544 30.568 13.2863 30.8499 13.2863C32.0155 13.2863 32.9214 12.7915 33.4662 11.8594C33.9603 11.0102 34.201 9.74603 34.201 7.98705C34.201 7.48904 34.182 6.91442 34.1472 6.28234C34.1345 6.03972 34.1187 5.79391 34.1028 5.5481H38.0748V12.4851C38.0748 12.8426 38.363 13.1299 38.7146 13.1299H40.1146C40.4693 13.1299 40.7544 12.8394 40.7544 12.4851V3.75081C40.7544 3.39327 40.4661 3.10596 40.1146 3.10596H32.0345C31.854 3.10596 31.6798 3.18257 31.5594 3.31984C31.4391 3.45711 31.3789 3.63908 31.3979 3.82104C31.4771 4.5872 31.5373 5.32144 31.5721 5.99822C31.6069 6.67499 31.626 7.27835 31.626 7.78593C31.626 9.2544 31.4391 9.95353 31.2807 10.2823C31.0653 10.7325 30.7803 10.8602 30.1721 10.7229C30.0233 10.691 29.8776 10.6431 29.7382 10.5856C29.5418 10.5026 29.3138 10.525 29.1364 10.6463C28.959 10.7676 28.8513 10.9687 28.8513 11.1826V12.2999C28.8513 12.5266 28.9685 12.7372 29.1617 12.8554L29.1649 12.8522Z" fill="white"/>
  <path d="M44.5236 12.68C45.3756 13.1109 46.3607 13.3312 47.4503 13.3312C48.2453 13.3312 49.0561 13.1907 49.8638 12.9162C50.6747 12.6385 51.3873 12.2554 51.9765 11.7765C52.1285 11.6552 52.214 11.4701 52.214 11.2753V10.158C52.214 9.91222 52.0778 9.68875 51.8593 9.58021C51.6407 9.47167 51.381 9.49402 51.1878 9.64406C50.7 10.0176 50.1394 10.3145 49.5217 10.5347C48.9104 10.7518 48.2769 10.8635 47.634 10.8635C46.9561 10.8635 46.367 10.7422 45.8856 10.5028C45.42 10.273 45.0715 9.95691 44.8182 9.5451C44.7485 9.43017 44.6883 9.30567 44.6376 9.17798H51.8212C52.176 9.17798 52.4611 8.88747 52.4611 8.53312C52.4611 7.44134 52.2425 6.4613 51.8117 5.62171C51.3715 4.76616 50.7475 4.09258 49.9525 3.61692C49.1638 3.14445 48.2326 2.90503 47.1874 2.90503C46.1421 2.90503 45.1824 3.1253 44.3715 3.56265C43.548 4.00319 42.8924 4.62251 42.4236 5.40463C41.9548 6.18675 41.7141 7.09657 41.7141 8.11174C41.7141 9.1269 41.9675 10.0654 42.4711 10.8508C42.9684 11.6297 43.6589 12.2458 44.5236 12.6832V12.68ZM45.6924 5.7079C46.0978 5.48763 46.5919 5.3759 47.1557 5.3759C47.6815 5.3759 48.1376 5.48125 48.5113 5.68556C48.8819 5.88987 49.1701 6.17079 49.3887 6.54749C49.4267 6.61453 49.4615 6.68157 49.4964 6.7518H44.7073C44.7295 6.70391 44.7548 6.65922 44.777 6.61453C44.9955 6.22187 45.2933 5.92817 45.6924 5.7111V5.7079Z" fill="white"/>
  <path d="M52.6545 5.56109H55.7838V12.4821C55.7838 12.8396 56.0721 13.1269 56.4236 13.1269H57.8236C58.1784 13.1269 58.4634 12.8364 58.4634 12.4821V5.56109H61.577C61.9317 5.56109 62.2168 5.27059 62.2168 4.91624V3.75423C62.2168 3.39669 61.9286 3.10938 61.577 3.10938H52.6513C52.2965 3.10938 52.0115 3.39988 52.0115 3.75423V4.91624C52.0115 5.27378 52.2997 5.56109 52.6513 5.56109H52.6545Z" fill="white"/>
  <path d="M14.5475 28.6383V17.0054C14.5475 16.6479 14.2592 16.3606 13.9076 16.3606H3.9177C3.73716 16.3606 3.56295 16.4372 3.44259 16.5745C3.32223 16.7118 3.26205 16.8937 3.28105 17.0757C3.39191 18.1355 3.47426 19.1411 3.52494 20.0605C3.57562 20.9799 3.60096 21.8067 3.60096 22.5154C3.60096 24.1563 3.43309 25.3375 3.10368 26.027C2.83445 26.5857 2.46704 26.8347 1.90324 26.8347C1.60867 26.8347 1.28877 26.7612 0.949857 26.6208C0.753479 26.5378 0.525427 26.5601 0.348053 26.6814C0.170679 26.8027 0.0629883 27.0039 0.0629883 27.2177V28.4755C0.0629883 28.7086 0.186516 28.9225 0.386062 29.0374C0.661624 29.197 0.972028 29.3087 1.30777 29.3758C1.61184 29.4332 1.93491 29.4651 2.25799 29.4651C3.19237 29.4651 3.97471 29.2002 4.58285 28.6734C5.17515 28.1659 5.60908 27.3901 5.87831 26.3718C6.12853 25.4268 6.25523 24.2042 6.25523 22.7389C6.25523 22.0174 6.22989 21.2321 6.18555 20.4053C6.16021 19.9424 6.12853 19.454 6.09053 18.9464H11.8235V28.6447C11.8235 29.0023 12.1117 29.2896 12.4633 29.2896H13.9108C14.2656 29.2896 14.5506 28.9991 14.5506 28.6447L14.5475 28.6383Z" fill="white"/>
  <path d="M23.8309 19.4923L18.8549 25.4843V19.9073C18.8549 19.5498 18.5667 19.2625 18.2151 19.2625H16.831C16.4762 19.2625 16.1912 19.553 16.1912 19.9073V28.6384C16.1912 28.9959 16.4794 29.2832 16.831 29.2832H18.6174C18.8074 29.2832 18.988 29.197 19.1083 29.0502L24.116 23.0167V28.6352C24.116 28.9927 24.4042 29.28 24.7558 29.28H26.1558C26.5105 29.28 26.7956 28.9895 26.7956 28.6352V19.9041C26.7956 19.5466 26.5073 19.2593 26.1558 19.2593H24.325C24.135 19.2593 23.9544 19.3455 23.8341 19.4923H23.8309Z" fill="white"/>
  <path d="M38.3382 28.6384V19.9073C38.3382 19.5498 38.0499 19.2625 37.6984 19.2625H28.912C28.5573 19.2625 28.2722 19.553 28.2722 19.9073V28.6384C28.2722 28.9959 28.5604 29.2832 28.912 29.2832H30.312C30.6668 29.2832 30.9518 28.9927 30.9518 28.6384V21.7014H35.6554V28.6384C35.6554 28.9959 35.9436 29.2832 36.2952 29.2832H37.6952C38.0499 29.2832 38.335 28.9927 38.335 28.6384H38.3382Z" fill="white"/>
  <path d="M39.3008 24.265C39.3008 25.2962 39.5542 26.2188 40.0578 27.0041C40.5551 27.783 41.2456 28.3991 42.1103 28.8365C42.9623 29.2674 43.9473 29.4877 45.0369 29.4877C45.8319 29.4877 46.6428 29.3472 47.4505 29.0727C48.2613 28.795 48.974 28.4119 49.5631 27.933C49.7152 27.8117 49.8007 27.6266 49.8007 27.4318V26.3145C49.8007 26.0687 49.6645 25.8452 49.4459 25.7367C49.2274 25.6282 48.9677 25.6505 48.7744 25.8006C48.2867 26.1741 47.726 26.4709 47.1084 26.6912C46.4971 26.9083 45.8636 27.02 45.2206 27.02C44.5428 27.02 43.9537 26.8987 43.4722 26.6593C43.0066 26.4294 42.6582 26.1134 42.4048 25.7016C42.3351 25.5867 42.275 25.4622 42.2243 25.3345H49.4079C49.7627 25.3345 50.0477 25.044 50.0477 24.6896C50.0477 23.5978 49.8292 22.6178 49.3984 21.7782C48.9581 20.9227 48.3342 20.2491 47.5392 19.7734C46.7505 19.3009 45.8193 19.0615 44.774 19.0615C43.7288 19.0615 42.7691 19.2818 41.9582 19.7191C41.1347 20.1597 40.479 20.779 40.0103 21.5611C39.5415 22.3432 39.3008 23.2531 39.3008 24.2682V24.265ZM43.279 21.8644C43.6844 21.6441 44.1786 21.5324 44.7424 21.5324C45.2681 21.5324 45.7242 21.6377 46.098 21.8421C46.4686 22.0464 46.7568 22.3273 46.9754 22.704C47.0134 22.771 47.0482 22.8381 47.0831 22.9083H42.294C42.3161 22.8604 42.3415 22.8157 42.3636 22.771C42.5822 22.3784 42.8799 22.0847 43.279 21.8676V21.8644Z" fill="white"/>
  <path d="M60.9429 26.8443V19.9073C60.9429 19.5498 60.6547 19.2625 60.3031 19.2625H58.9031C58.5484 19.2625 58.2633 19.553 58.2633 19.9073V26.8443H53.6833V19.9073C53.6833 19.5498 53.395 19.2625 53.0435 19.2625H51.6435C51.2887 19.2625 51.0037 19.553 51.0037 19.9073V28.6384C51.0037 28.9959 51.2919 29.2832 51.6435 29.2832H60.0497V30.9017C60.0497 31.2593 60.338 31.5466 60.6895 31.5466H61.9375C62.2922 31.5466 62.5773 31.2561 62.5773 30.9017V27.4891C62.5773 27.1316 62.2891 26.8443 61.9375 26.8443H60.9461H60.9429Z" fill="white"/>
  <path d="M63.8732 29.2866H65.1814C65.3714 29.2866 65.5488 29.2036 65.6723 29.0568L68.4406 25.7495L70.5722 28.9961C70.6926 29.1781 70.8922 29.2866 71.1075 29.2866H72.7863C73.0238 29.2866 73.2424 29.1557 73.3532 28.945C73.4641 28.7343 73.4514 28.479 73.3184 28.281L70.208 23.6458L72.9858 20.3289C73.1473 20.1374 73.1822 19.8692 73.0777 19.6394C72.9731 19.4127 72.7451 19.2659 72.4949 19.2659H70.8636C70.6736 19.2659 70.4931 19.3521 70.3695 19.4989L65.9194 24.9067V19.9139C65.9194 19.5564 65.6311 19.2691 65.2795 19.2691H63.8796C63.5248 19.2691 63.2397 19.5596 63.2397 19.9139V28.645C63.2397 29.0025 63.528 29.2898 63.8796 29.2898L63.8732 29.2866Z" fill="white"/>
  <path d="M81.6172 19.7096C80.7557 19.2786 79.7516 19.0615 78.6304 19.0615C77.5091 19.0615 76.5209 19.2818 75.6657 19.7128C74.7947 20.1533 74.1042 20.7694 73.6101 21.5484C73.1159 22.3337 72.8625 23.2531 72.8625 24.2842C72.8625 25.3153 73.1128 26.2219 73.6069 27.0104C74.101 27.7958 74.7915 28.4151 75.6657 28.8492C76.5209 29.2738 77.5186 29.4909 78.6272 29.4909C79.7358 29.4909 80.7493 29.277 81.6109 28.8524C82.4914 28.4183 83.1851 27.799 83.6792 27.0104C84.1733 26.2219 84.4235 25.3057 84.4235 24.2842C84.4235 23.2626 84.1733 22.3337 83.676 21.5484C83.1851 20.7694 82.4882 20.1501 81.6109 19.7096H81.6172ZM78.6462 27.0168C78.0001 27.0168 77.4363 26.8987 76.9675 26.6657C76.5145 26.439 76.1788 26.1357 75.9381 25.7335C75.6942 25.3249 75.577 24.846 75.577 24.2682C75.577 23.6904 75.6942 23.2243 75.9381 22.8189C76.1788 22.4167 76.5145 22.1102 76.9675 21.8867C77.4363 21.6537 78.0001 21.5356 78.6462 21.5356C79.2923 21.5356 79.8688 21.6537 80.3281 21.8867C80.7747 22.1134 81.1104 22.4167 81.3511 22.8189C81.595 23.2275 81.7122 23.7032 81.7122 24.2682C81.7122 24.8333 81.595 25.3249 81.3511 25.7335C81.1104 26.1357 80.7747 26.4422 80.3281 26.6689C79.8656 26.9019 79.3019 27.02 78.6462 27.02V27.0168Z" fill="white"/>
  <path d="M88.1264 18.7805C88.7567 19.32 89.5834 19.5945 90.5874 19.5945C91.5915 19.5945 92.4055 19.3232 93.039 18.7837C93.6788 18.241 94.0715 17.4716 94.2077 16.4948C94.2331 16.3096 94.1792 16.1213 94.0557 15.9808C93.9322 15.8403 93.758 15.7573 93.5711 15.7573H92.3707C92.0603 15.7573 91.7974 15.9808 91.7404 16.2873C91.6738 16.648 91.544 16.9098 91.3444 17.0885C91.1512 17.2577 90.901 17.3407 90.5874 17.3407C90.2739 17.3407 90.0236 17.2577 89.8304 17.0885C89.6277 16.913 89.4978 16.6512 89.4345 16.2873C89.3775 15.9808 89.1146 15.7573 88.8042 15.7573H87.6037C87.4169 15.7573 87.2427 15.8371 87.1191 15.9808C86.9988 16.1213 86.9418 16.3096 86.9671 16.4948C87.1001 17.4684 87.4929 18.241 88.1264 18.7837V18.7805Z" fill="white"/>
  <path d="M95.3572 19.2625H93.5264C93.3364 19.2625 93.1559 19.3486 93.0355 19.4955L88.0595 25.4875V19.9105C88.0595 19.553 87.7713 19.2656 87.4197 19.2656H86.0356C85.6808 19.2656 85.3958 19.5561 85.3958 19.9105V28.6415C85.3958 28.9991 85.684 29.2864 86.0356 29.2864H87.822C88.012 29.2864 88.1926 29.2002 88.3129 29.0534L93.3206 23.0198V28.6384C93.3206 28.9959 93.6088 29.2832 93.9604 29.2832H95.3604C95.7151 29.2832 96.0002 28.9927 96.0002 28.6384V19.9073C96.0002 19.5498 95.7119 19.2625 95.3604 19.2625H95.3572Z" fill="white"/>
  <path d="M9.33767 35.8658C8.47614 35.4349 7.47208 35.2178 6.35082 35.2178C5.22957 35.2178 4.24134 35.438 3.38615 35.869C2.51511 36.3096 1.82462 36.9257 1.33051 37.7046C0.836399 38.4899 0.583008 39.4093 0.583008 40.4404C0.583008 41.4716 0.833231 42.3782 1.32734 43.1667C1.82146 43.952 2.51195 44.5713 3.38615 45.0055C4.24134 45.4301 5.23907 45.6471 6.34765 45.6471C7.45624 45.6471 8.4698 45.4333 9.33133 45.0087C10.2119 44.5745 10.9055 43.9552 11.3996 43.1667C11.8938 42.3782 12.144 41.462 12.144 40.4404C12.144 39.4189 11.8937 38.4899 11.3965 37.7046C10.9055 36.9257 10.2087 36.3064 9.33133 35.8658H9.33767ZM6.36666 43.1731C5.72051 43.1731 5.15672 43.055 4.68794 42.8219C4.23501 42.5953 3.89926 42.292 3.65854 41.8898C3.41465 41.4811 3.29746 41.0023 3.29746 40.4245C3.29746 39.8467 3.41465 39.3806 3.65854 38.9752C3.89926 38.5729 4.23501 38.2665 4.68794 38.043C5.15672 37.81 5.72051 37.6918 6.36666 37.6918C7.0128 37.6918 7.58927 37.81 8.04854 38.043C8.49514 38.2697 8.83089 38.5729 9.07161 38.9752C9.3155 39.3838 9.43269 39.8594 9.43269 40.4245C9.43269 40.9895 9.3155 41.4811 9.07161 41.8898C8.83089 42.292 8.49514 42.5985 8.04854 42.8251C7.5861 43.0582 7.02231 43.1763 6.36666 43.1763V43.1731Z" fill="white"/>
  <path d="M23.5269 38.2695C23.093 37.5481 22.4817 36.9798 21.712 36.5808C20.955 36.1881 20.0713 35.9902 19.0799 35.9902C18.2817 35.9902 17.5374 36.1275 16.8627 36.402C16.4066 36.5872 15.9885 36.8266 15.6084 37.1203C15.7605 36.7308 15.9632 36.3924 16.2166 36.1083C16.8437 35.406 17.7559 35.0293 19.007 34.9559C19.726 34.9144 20.3468 34.8697 20.8536 34.8218C21.3699 34.7739 21.8038 34.7165 22.1459 34.6494C22.526 34.576 22.8206 34.4898 23.0455 34.3813C23.2703 34.2759 23.4129 34.0461 23.4129 33.7971V32.5106C23.4129 32.2967 23.3083 32.0987 23.1341 31.9774C22.9599 31.8561 22.7351 31.8306 22.5387 31.9072C22.3771 31.9711 22.2093 32.0253 22.0351 32.07C21.8609 32.1147 21.636 32.1562 21.3731 32.1945C21.0975 32.236 20.7333 32.2775 20.2962 32.3222C19.8527 32.3669 19.2921 32.418 18.6238 32.4691C16.7582 32.6287 15.2917 33.3023 14.2718 34.477C13.2582 35.6422 12.7419 37.2288 12.7419 39.1921C12.7419 40.4978 12.9795 41.6438 13.4483 42.5952C13.9297 43.5784 14.6329 44.3414 15.5356 44.8617C16.4256 45.3757 17.4994 45.6375 18.7251 45.6375C19.7925 45.6375 20.7428 45.4395 21.5441 45.0437C22.3676 44.6415 23.0169 44.0668 23.4826 43.3358C23.9482 42.6015 24.1825 41.7396 24.1825 40.7691C24.1825 39.7987 23.9608 38.9814 23.5269 38.2632V38.2695ZM20.2423 42.8601C19.8369 43.0676 19.3428 43.1698 18.7695 43.1698C17.8953 43.1698 17.1921 42.9431 16.6188 42.4739C16.0899 42.0429 15.7446 41.4619 15.5736 40.7021C15.8587 39.9806 16.2546 39.4379 16.7867 39.0453C17.3505 38.6271 17.9998 38.426 18.7695 38.426C19.3428 38.426 19.8401 38.5281 20.2487 38.7324C20.6382 38.9272 20.9296 39.1889 21.1387 39.5369C21.3509 39.8881 21.4523 40.2967 21.4523 40.7915C21.4523 41.2863 21.3509 41.6949 21.1387 42.0461C20.9296 42.394 20.6351 42.659 20.2423 42.8601Z" fill="white"/>
  <path d="M35.0501 35.4189H26.9701C26.7896 35.4189 26.6153 35.4956 26.495 35.6328C26.3746 35.7701 26.3144 35.9521 26.3334 36.134C26.4126 36.9002 26.4728 37.6344 26.5077 38.3112C26.5425 38.988 26.5615 39.5913 26.5615 40.0989C26.5615 41.5674 26.3746 42.2665 26.2163 42.5953C26.0009 43.0454 25.7158 43.1699 25.1077 43.0359C24.9588 43.0039 24.8131 42.9561 24.6737 42.8986C24.4774 42.8156 24.2493 42.8379 24.0719 42.9593C23.8946 43.0806 23.7869 43.2817 23.7869 43.4956V44.6129C23.7869 44.8395 23.9041 45.0502 24.0973 45.1683C24.3602 45.328 24.6452 45.4429 24.943 45.5099C25.2185 45.5706 25.5004 45.6025 25.7823 45.6025C26.9479 45.6025 27.8538 45.1077 28.3986 44.1755C28.8927 43.3264 29.1334 42.0622 29.1334 40.3032C29.1334 39.8052 29.1144 39.2306 29.0796 38.5985C29.0669 38.3559 29.0511 38.1101 29.0352 37.8643H33.0071V44.8012C33.0071 45.1588 33.2954 45.4461 33.6469 45.4461H35.0469C35.4017 45.4461 35.6867 45.1556 35.6867 44.8012V36.0702C35.6867 35.7126 35.3985 35.4253 35.0469 35.4253L35.0501 35.4189Z" fill="white"/>
  <path d="M47.9733 35.6296C47.853 35.4955 47.6788 35.4189 47.4982 35.4189H46.0507C45.7213 35.4189 45.4426 35.6743 45.4109 36.0063L45.3412 36.7597C44.9897 36.4149 44.6064 36.118 44.1915 35.8786C43.4345 35.4412 42.5888 35.2178 41.6797 35.2178C40.7169 35.2178 39.8458 35.4444 39.092 35.8882C38.3382 36.3351 37.7363 36.9576 37.3088 37.7397C36.8843 38.5155 36.6658 39.4253 36.6658 40.4404C36.6658 41.4556 36.8812 42.3495 37.3088 43.1252C37.7363 43.9073 38.3382 44.5298 39.092 44.9768C39.8458 45.4205 40.7169 45.6471 41.6797 45.6471C42.5888 45.6471 43.4345 45.4269 44.1915 44.9863C44.6096 44.7469 44.9928 44.45 45.3412 44.1021L45.4109 44.8586C45.4426 45.1906 45.7182 45.446 46.0507 45.446H47.4982C47.6788 45.446 47.8498 45.3694 47.9733 45.2353C48.0937 45.1013 48.1539 44.9193 48.138 44.7405L47.7295 40.4436L48.138 36.1308C48.1539 35.9488 48.0969 35.77 47.9733 35.636V35.6296ZM41.9141 43.1571C41.4105 43.1571 40.9861 43.0486 40.6123 42.8219C40.2386 42.5953 39.9504 42.2888 39.7318 41.8834C39.5133 41.4748 39.4024 40.9895 39.4024 40.4373C39.4024 39.885 39.5133 39.3838 39.7318 38.9752C39.9504 38.5697 40.2386 38.2633 40.6123 38.0366C40.9861 37.81 41.4137 37.7014 41.9141 37.7014C42.4146 37.7014 42.8802 37.8163 43.3078 38.0494C43.748 38.292 44.1503 38.6368 44.5019 39.0741C44.8155 39.4668 45.0847 39.9233 45.3001 40.4341C45.0847 40.9384 44.8155 41.3886 44.5019 41.7844C44.1503 42.2218 43.7512 42.5665 43.3078 42.8092C42.8802 43.0422 42.4241 43.1571 41.9141 43.1571Z" fill="white"/>
  <path d="M59.2556 40.8299H57.8081C57.504 40.8299 57.2411 41.047 57.1809 41.3471C57.0701 41.8962 56.7882 42.3207 56.3131 42.6496C55.8063 43.0007 55.195 43.1699 54.438 43.1699C53.8488 43.1699 53.3389 43.055 52.9176 42.8283C52.5059 42.6049 52.1986 42.3048 51.9737 41.9025C51.7488 41.4971 51.6317 41.0023 51.6317 40.4341C51.6317 39.8658 51.7457 39.3455 51.9706 38.9464C52.1923 38.5506 52.5027 38.2505 52.9144 38.0271C53.3357 37.8004 53.8488 37.6855 54.4348 37.6855C55.1823 37.6855 55.7904 37.8547 56.2972 38.2026C56.7692 38.5282 57.0574 38.9592 57.1778 39.5179C57.2411 39.8148 57.504 40.0286 57.8049 40.0286H59.2524C59.4393 40.0286 59.6198 39.9456 59.7402 39.802C59.8637 39.6583 59.9144 39.4668 59.8859 39.2784C59.7528 38.458 59.4234 37.7334 58.9008 37.1236C58.394 36.5298 57.7479 36.0574 56.9782 35.719C56.218 35.3838 55.3628 35.2146 54.438 35.2146C53.3737 35.2146 52.4172 35.4349 51.5936 35.869C50.7606 36.3096 50.0955 36.9289 49.6204 37.7078C49.1453 38.4899 48.9014 39.4061 48.9014 40.4341C48.9014 41.462 49.1421 42.3622 49.6204 43.1444C50.0955 43.9233 50.7575 44.5426 51.5936 44.9832C52.4172 45.4173 53.3737 45.6376 54.438 45.6376C55.3628 45.6376 56.2149 45.4716 56.975 45.1428C57.7479 44.8108 58.3972 44.3319 58.904 43.7254C59.4234 43.1061 59.7528 42.3814 59.8859 41.5737C59.9175 41.3854 59.8637 41.1939 59.7433 41.0502C59.623 40.9065 59.4424 40.8235 59.2556 40.8235V40.8299Z" fill="white"/>
  <path d="M68.9354 35.4189H60.0097C59.6549 35.4189 59.3699 35.7094 59.3699 36.0638V37.2258C59.3699 37.5833 59.6581 37.8707 60.0097 37.8707H63.1391V44.7917C63.1391 45.1492 63.4273 45.4365 63.7789 45.4365H65.1789C65.5336 45.4365 65.8187 45.146 65.8187 44.7917V37.8707H68.9322C69.287 37.8707 69.572 37.5802 69.572 37.2258V36.0638C69.572 35.7063 69.2838 35.4189 68.9322 35.4189H68.9354Z" fill="white"/>
  <path d="M80.0776 35.4189H78.2469C78.0569 35.4189 77.8763 35.5051 77.756 35.652L72.78 41.644V36.067C72.78 35.7094 72.4918 35.4221 72.1402 35.4221H70.756C70.4013 35.4221 70.1162 35.7126 70.1162 36.067V44.798C70.1162 45.1556 70.4044 45.4429 70.756 45.4429H72.5424C72.7325 45.4429 72.913 45.3567 73.0334 45.2098L78.041 39.1763V44.7948C78.041 45.1524 78.3293 45.4397 78.6808 45.4397H80.0808C80.4356 45.4397 80.7206 45.1492 80.7206 44.7948V36.0638C80.7206 35.7063 80.4324 35.4189 80.0808 35.4189H80.0776Z" fill="white"/>
</svg>