<svg width="404" height="192" viewBox="0 0 404 192" fill="none" xmlns="http://www.w3.org/2000/svg">
<path d="M3.22897 11.6319H33.526L9.65845 51.17C9.15261 52.0153 9.1393 53.0617 9.6052 53.907C10.0844 54.7656 10.9763 55.2889 11.948 55.2889H18.484C19.4291 55.2889 20.2944 54.7925 20.7869 53.9741L47.1837 10.1292C47.4366 9.69991 47.5697 9.21692 47.5697 8.72051V3.70278C47.5697 2.20014 46.3584 0.992663 44.8808 0.992663H3.22897C1.75139 0.979247 0.540039 2.20014 0.540039 3.70278V8.92176C0.540039 10.4244 1.75139 11.6319 3.22897 11.6319Z" fill="white"/>
<path d="M61.2139 52.6325C65.3139 54.967 70.2658 56.1476 75.9232 56.1476C81.5806 56.1476 86.4659 54.967 90.5393 52.6325C94.6659 50.2713 97.8872 46.9172 100.097 42.6642C102.28 38.4917 103.385 33.5947 103.385 28.1342C103.385 22.6737 102.28 17.7231 100.097 13.564C97.8739 9.3378 94.6659 5.99711 90.5393 3.63583C86.4659 1.30137 81.5407 0.120728 75.9232 0.120728C70.3057 0.120728 65.3139 1.30137 61.2139 3.63583C57.0607 5.99711 53.8393 9.35122 51.6163 13.6042C49.4332 17.7901 48.3284 22.6737 48.3284 28.1342C48.3284 33.5947 49.4332 38.5453 51.6163 42.7044C53.8393 46.9306 57.0607 50.2713 61.2139 52.6325ZM59.8695 28.1342C59.8695 22.5261 61.2938 18.1658 64.0892 15.1605C66.8847 12.1687 70.7317 10.7063 75.87 10.7063C81.0082 10.7063 84.9085 12.1552 87.6773 15.1605C90.4594 18.1658 91.8704 22.5395 91.8704 28.1342C91.8704 33.7288 90.4594 38.1026 87.6773 41.1079C84.9085 44.0997 81.0481 45.5621 75.87 45.5621C70.6918 45.5621 66.8847 44.0997 64.0892 41.1079C61.2938 38.1026 59.8695 33.7422 59.8695 28.1342Z" fill="white"/>
<path d="M123.113 54.1351C124.218 54.8059 125.416 55.2889 126.667 55.5707C127.825 55.8256 129.01 55.9597 130.195 55.9597C135.093 55.9597 138.9 53.8802 141.19 49.9626C143.266 46.3938 144.278 41.0809 144.278 33.6885C144.278 31.5955 144.198 29.1806 144.052 26.5241C143.999 25.5045 143.932 24.4714 143.865 23.4384H160.558V52.5922C160.558 54.0949 161.769 55.3023 163.247 55.3023H169.131C170.622 55.3023 171.82 54.0814 171.82 52.5922V15.8849C171.82 14.3823 170.608 13.1748 169.131 13.1748H135.173C134.414 13.1748 133.682 13.4968 133.176 14.0737C132.67 14.6506 132.418 15.4153 132.497 16.1801C132.83 19.4 133.083 22.4858 133.23 25.3301C133.376 28.1744 133.456 30.7101 133.456 32.8433C133.456 39.0148 132.67 41.953 132.005 43.3349C131.1 45.2266 129.902 45.7633 127.346 45.1864C126.72 45.0522 126.108 44.851 125.522 44.6095C124.697 44.2606 123.738 44.3545 122.993 44.8644C122.248 45.3742 121.795 46.2194 121.795 47.1183V51.8141C121.795 52.7666 122.287 53.6521 123.099 54.1485L123.113 54.1351Z" fill="white"/>
<path d="M187.66 53.4106C191.241 55.2219 195.381 56.1476 199.96 56.1476C203.301 56.1476 206.709 55.5573 210.104 54.4035C213.511 53.2362 216.506 51.6263 218.982 49.6138C219.621 49.104 219.981 48.3258 219.981 47.5074V42.8117C219.981 41.7786 219.408 40.8395 218.49 40.3833C217.571 39.9271 216.48 40.0211 215.668 40.6516C213.618 42.2214 211.262 43.4691 208.666 44.3948C206.097 45.3071 203.435 45.7767 200.732 45.7767C197.884 45.7767 195.408 45.2669 193.384 44.2606C191.428 43.2947 189.963 41.9664 188.898 40.2357C188.605 39.7527 188.353 39.2295 188.14 38.6928H218.33C219.821 38.6928 221.019 37.4719 221.019 35.9827C221.019 31.3943 220.101 27.2755 218.29 23.747C216.44 20.1514 213.818 17.3205 210.476 15.3214C207.162 13.3358 203.248 12.3296 198.855 12.3296C194.463 12.3296 190.429 13.2553 187.021 15.0934C183.56 16.9448 180.805 19.5476 178.835 22.8346C176.865 26.1217 175.853 29.9453 175.853 34.2118C175.853 38.4782 176.918 42.4226 179.034 45.723C181.124 48.9966 184.026 51.586 187.66 53.4241V53.4106ZM192.572 24.1092C194.276 23.1835 196.353 22.7139 198.722 22.7139C200.932 22.7139 202.849 23.1566 204.42 24.0153C205.977 24.8739 207.188 26.0546 208.107 27.6377C208.267 27.9195 208.413 28.2012 208.56 28.4964H188.432C188.526 28.2951 188.632 28.1073 188.725 27.9195C189.644 26.2692 190.895 25.0349 192.572 24.1226V24.1092Z" fill="white"/>
<path d="M221.831 23.492H234.983V52.5788C234.983 54.0814 236.194 55.2889 237.672 55.2889H243.556C245.046 55.2889 246.245 54.068 246.245 52.5788V23.492H259.33C260.821 23.492 262.019 22.2711 262.019 20.7819V15.8983C262.019 14.3957 260.807 13.1882 259.33 13.1882H221.818C220.327 13.1882 219.129 14.4091 219.129 15.8983V20.7819C219.129 22.2846 220.34 23.492 221.818 23.492H221.831Z" fill="white"/>
<path d="M61.6798 120.479V71.59C61.6798 70.0874 60.4685 68.8799 58.9909 68.8799H17.0063C16.2475 68.8799 15.5154 69.2019 15.0096 69.7788C14.5037 70.3557 14.2508 71.1204 14.3307 71.8852C14.7966 76.3394 15.1427 80.5656 15.3557 84.4295C15.5687 88.2934 15.6751 91.7683 15.6751 94.7467C15.6751 101.643 14.9696 106.607 13.5852 109.505C12.4538 111.853 10.9096 112.899 8.54016 112.899C7.30219 112.899 5.95772 112.591 4.53338 112C3.70807 111.651 2.74964 111.745 2.00419 112.255C1.25874 112.765 0.806152 113.61 0.806152 114.509V119.795C0.806152 120.775 1.3253 121.673 2.16393 122.156C3.32203 122.827 4.62657 123.297 6.03759 123.579C7.3155 123.82 8.67327 123.954 10.0311 123.954C13.958 123.954 17.2459 122.841 19.8017 120.627C22.291 118.494 24.1147 115.234 25.2461 110.954C26.2978 106.982 26.8302 101.844 26.8302 95.6859C26.8302 92.6538 26.7237 89.3533 26.5374 85.8785C26.4309 83.9331 26.2978 81.8804 26.138 79.7472H50.2319V120.506C50.2319 122.009 51.4433 123.216 52.9208 123.216H59.0042C60.4951 123.216 61.6931 121.995 61.6931 120.506L61.6798 120.479Z" fill="white"/>
<path d="M100.696 82.041L79.7836 107.224V83.7852C79.7836 82.2825 78.5723 81.0751 77.0947 81.0751H71.2776C69.7867 81.0751 68.5886 82.296 68.5886 83.7852V120.479C68.5886 121.982 69.8 123.189 71.2776 123.189H78.7853C79.584 123.189 80.3427 122.827 80.8486 122.21L101.894 96.8528V120.466C101.894 121.968 103.105 123.176 104.583 123.176H110.467C111.958 123.176 113.156 121.955 113.156 120.466V83.7718C113.156 82.2691 111.944 81.0616 110.467 81.0616H102.773C101.974 81.0616 101.215 81.4239 100.709 82.041H100.696Z" fill="white"/>
<path d="M161.663 120.48V83.7857C161.663 82.283 160.452 81.0756 158.974 81.0756H122.048C120.557 81.0756 119.359 82.2965 119.359 83.7857V120.48C119.359 121.982 120.57 123.19 122.048 123.19H127.932C129.422 123.19 130.62 121.969 130.62 120.48V91.3257H150.388V120.48C150.388 121.982 151.599 123.19 153.077 123.19H158.961C160.452 123.19 161.65 121.969 161.65 120.48H161.663Z" fill="white"/>
<path d="M165.71 102.099C165.71 106.432 166.775 110.309 168.891 113.61C170.981 116.883 173.883 119.473 177.517 121.311C181.098 123.122 185.238 124.048 189.817 124.048C193.158 124.048 196.566 123.458 199.961 122.304C203.368 121.136 206.363 119.527 208.839 117.514C209.478 117.004 209.838 116.226 209.838 115.408V110.712C209.838 109.679 209.265 108.74 208.347 108.284C207.428 107.827 206.337 107.921 205.525 108.552C203.475 110.122 201.119 111.369 198.523 112.295C195.954 113.207 193.291 113.677 190.589 113.677C187.741 113.677 185.265 113.167 183.241 112.161C181.284 111.195 179.82 109.867 178.755 108.136C178.462 107.653 178.209 107.13 177.997 106.593H208.187C209.678 106.593 210.876 105.372 210.876 103.883C210.876 99.2946 209.958 95.1757 208.147 91.6472C206.297 88.0516 203.674 85.2208 200.333 83.2217C197.019 81.2361 193.105 80.2299 188.712 80.2299C184.319 80.2299 180.286 81.1556 176.878 82.9936C173.417 84.8451 170.662 87.4479 168.692 90.7349C166.722 94.0219 165.71 97.8456 165.71 102.112V102.099ZM182.429 92.0095C184.133 91.0837 186.21 90.6142 188.579 90.6142C190.789 90.6142 192.706 91.0569 194.277 91.9156C195.834 92.7742 197.045 93.9548 197.964 95.538C198.124 95.8197 198.27 96.1015 198.416 96.3966H178.289C178.383 96.1954 178.489 96.0076 178.582 95.8197C179.501 94.1695 180.752 92.9352 182.429 92.0229V92.0095Z" fill="white"/>
<path d="M256.667 112.94V83.7857C256.667 82.283 255.456 81.0756 253.978 81.0756H248.095C246.604 81.0756 245.406 82.2965 245.406 83.7857V112.94H226.157V83.7857C226.157 82.283 224.946 81.0756 223.468 81.0756H217.585C216.094 81.0756 214.896 82.2965 214.896 83.7857V120.48C214.896 121.982 216.107 123.19 217.585 123.19H252.914V129.992C252.914 131.494 254.125 132.702 255.602 132.702H260.847C262.338 132.702 263.536 131.481 263.536 129.992V115.65C263.536 114.147 262.325 112.94 260.847 112.94H256.681H256.667Z" fill="white"/>
<path d="M268.981 123.203H274.478C275.277 123.203 276.022 122.854 276.542 122.237L288.176 108.337L297.135 121.982C297.64 122.747 298.479 123.203 299.384 123.203H306.439C307.438 123.203 308.356 122.653 308.822 121.767C309.288 120.882 309.235 119.808 308.676 118.977L295.604 99.4959L307.278 85.5563C307.957 84.7513 308.103 83.6243 307.664 82.6583C307.225 81.7058 306.266 81.0886 305.215 81.0886H298.359C297.561 81.0886 296.802 81.4509 296.283 82.068L277.58 104.795V83.8122C277.58 82.3095 276.369 81.102 274.891 81.102H269.007C267.516 81.102 266.318 82.3229 266.318 83.8122V120.506C266.318 122.009 267.53 123.216 269.007 123.216L268.981 123.203Z" fill="white"/>
<path d="M343.552 82.9534C339.931 81.1422 335.711 80.2299 330.999 80.2299C326.287 80.2299 322.134 81.1556 318.54 82.9668C314.879 84.8183 311.977 87.4076 309.9 90.6812C307.824 93.9817 306.759 97.8456 306.759 102.179C306.759 106.513 307.81 110.323 309.887 113.637C311.964 116.937 314.866 119.54 318.54 121.365C322.134 123.149 326.327 124.061 330.986 124.061C335.645 124.061 339.905 123.162 343.525 121.378C347.226 119.553 350.141 116.951 352.218 113.637C354.294 110.323 355.346 106.472 355.346 102.179C355.346 97.8858 354.294 93.9817 352.204 90.6812C350.141 87.4076 347.213 84.8049 343.525 82.9534H343.552ZM331.066 113.664C328.35 113.664 325.981 113.167 324.011 112.188C322.107 111.235 320.696 109.961 319.684 108.27C318.659 106.553 318.167 104.54 318.167 102.112C318.167 99.6836 318.659 97.7249 319.684 96.021C320.696 94.3305 322.107 93.0425 324.011 92.1034C325.981 91.124 328.35 90.6276 331.066 90.6276C333.781 90.6276 336.204 91.124 338.134 92.1034C340.011 93.0559 341.422 94.3305 342.434 96.021C343.459 97.7383 343.951 99.7373 343.951 102.112C343.951 104.487 343.459 106.553 342.434 108.27C341.422 109.961 340.011 111.249 338.134 112.201C336.191 113.181 333.821 113.677 331.066 113.677V113.664Z" fill="white"/>
<path d="M370.907 79.0495C373.556 81.3168 377.03 82.4706 381.25 82.4706C385.47 82.4706 388.891 81.3302 391.553 79.0629C394.242 76.7821 395.893 73.5487 396.465 69.4433C396.572 68.6652 396.346 67.8736 395.826 67.2833C395.307 66.6929 394.575 66.3441 393.79 66.3441H388.745C387.44 66.3441 386.335 67.2833 386.096 68.5712C385.816 70.0873 385.27 71.1874 384.432 71.9388C383.62 72.6498 382.568 72.9987 381.25 72.9987C379.932 72.9987 378.881 72.6498 378.069 71.9388C377.217 71.2009 376.671 70.1007 376.405 68.5712C376.165 67.2833 375.06 66.3441 373.756 66.3441H368.711C367.925 66.3441 367.193 66.6795 366.674 67.2833C366.168 67.8736 365.929 68.6652 366.035 69.4433C366.594 73.5353 368.245 76.7821 370.907 79.0629V79.0495Z" fill="white"/>
<path d="M401.298 81.0756H393.604C392.805 81.0756 392.046 81.4378 391.54 82.055L370.628 107.238V83.7991C370.628 82.2965 369.417 81.089 367.939 81.089H362.122C360.631 81.089 359.433 82.3099 359.433 83.7991V120.493C359.433 121.996 360.644 123.203 362.122 123.203H369.63C370.428 123.203 371.187 122.841 371.693 122.224L392.738 96.8667V120.48C392.738 121.982 393.95 123.19 395.427 123.19H401.311C402.802 123.19 404 121.969 404 120.48V83.7857C404 82.283 402.789 81.0756 401.311 81.0756H401.298Z" fill="white"/>
<path d="M39.7826 150.854C36.1619 149.043 31.9421 148.13 27.2298 148.13C22.5175 148.13 18.3643 149.056 14.7702 150.867C11.1095 152.719 8.20763 155.308 6.13103 158.582C4.05443 161.882 2.9895 165.746 2.9895 170.079C2.9895 174.413 4.04111 178.223 6.11771 181.537C8.19432 184.838 11.0962 187.44 14.7702 189.265C18.3643 191.049 22.5575 191.962 27.2165 191.962C31.8756 191.962 36.1352 191.063 39.756 189.278C43.4566 187.454 46.3718 184.851 48.4484 181.537C50.525 178.223 51.5766 174.373 51.5766 170.079C51.5766 165.786 50.525 161.882 48.4351 158.582C46.3718 155.308 43.4433 152.705 39.756 150.854H39.7826ZM27.2964 181.564C24.5808 181.564 22.2114 181.068 20.2413 180.088C18.3377 179.136 16.9267 177.861 15.915 176.171C14.89 174.453 14.3975 172.441 14.3975 170.012C14.3975 167.584 14.89 165.625 15.915 163.921C16.9267 162.231 18.3377 160.943 20.2413 160.004C22.2114 159.024 24.5808 158.528 27.2964 158.528C30.0119 158.528 32.4346 159.024 34.3648 160.004C36.2417 160.956 37.6528 162.231 38.6644 163.921C39.6894 165.639 40.182 167.638 40.182 170.012C40.182 172.387 39.6894 174.453 38.6644 176.171C37.6528 177.861 36.2417 179.149 34.3648 180.102C32.4213 181.081 30.0519 181.577 27.2964 181.577V181.564Z" fill="white"/>
<path d="M99.4181 160.956C97.5944 157.924 95.0253 155.536 91.7906 153.859C88.6091 152.209 84.8952 151.377 80.7287 151.377C77.3742 151.377 74.246 151.954 71.4106 153.108C69.4937 153.886 67.7366 154.892 66.1392 156.126C66.7782 154.49 67.6301 153.068 68.6951 151.873C71.3307 148.922 75.1645 147.339 80.4225 147.03C83.4442 146.856 86.0533 146.668 88.1831 146.467C90.3529 146.265 92.1766 146.024 93.6143 145.742C95.2116 145.434 96.4496 145.071 97.3947 144.615C98.3399 144.172 98.9389 143.206 98.9389 142.16V136.753C98.9389 135.854 98.4996 135.022 97.7675 134.513C97.0353 134.003 96.0902 133.895 95.2649 134.217C94.586 134.486 93.8805 134.714 93.1484 134.902C92.4162 135.09 91.4711 135.264 90.3662 135.425C89.2081 135.599 87.6773 135.774 85.8403 135.962C83.9767 136.149 81.6206 136.364 78.8118 136.579C70.9713 137.25 64.8081 140.08 60.5218 145.018C56.2621 149.915 54.0923 156.583 54.0923 164.834C54.0923 170.321 55.0907 175.138 57.0608 179.136C59.0841 183.268 62.0393 186.474 65.8331 188.661C69.5736 190.821 74.0862 191.921 79.2378 191.921C83.7238 191.921 87.7172 191.09 91.0851 189.426C94.5461 187.736 97.2749 185.321 99.2317 182.248C101.189 179.162 102.174 175.54 102.174 171.461C102.174 167.383 101.242 163.948 99.4181 160.93V160.956ZM85.614 180.249C83.9101 181.121 81.8335 181.551 79.4242 181.551C75.7502 181.551 72.795 180.598 70.3856 178.626C68.1626 176.815 66.7116 174.373 65.9928 171.18C67.1908 168.148 68.8548 165.867 71.0911 164.217C73.4606 162.459 76.1894 161.614 79.4242 161.614C81.8335 161.614 83.9235 162.043 85.6406 162.902C87.278 163.72 88.5026 164.82 89.3812 166.283C90.2731 167.758 90.699 169.476 90.699 171.555C90.699 173.635 90.2731 175.352 89.3812 176.828C88.5026 178.29 87.2647 179.404 85.614 180.249Z" fill="white"/>
<path d="M147.846 148.975H113.888C113.129 148.975 112.397 149.297 111.891 149.874C111.386 150.451 111.133 151.216 111.212 151.981C111.545 155.201 111.798 158.286 111.945 161.131C112.091 163.975 112.171 166.511 112.171 168.644C112.171 174.815 111.386 177.754 110.72 179.136C109.815 181.027 108.617 181.551 106.061 180.987C105.435 180.853 104.823 180.652 104.237 180.41C103.412 180.061 102.453 180.155 101.708 180.665C100.963 181.175 100.51 182.02 100.51 182.919V187.615C100.51 188.567 101.003 189.453 101.815 189.949C102.919 190.62 104.117 191.103 105.369 191.385C106.527 191.64 107.712 191.774 108.896 191.774C113.795 191.774 117.602 189.694 119.892 185.777C121.968 182.208 122.98 176.895 122.98 169.503C122.98 167.41 122.9 164.995 122.754 162.338C122.7 161.319 122.634 160.285 122.567 159.252H139.26V188.406C139.26 189.909 140.471 191.116 141.949 191.116H147.833C149.323 191.116 150.521 189.896 150.521 188.406V151.712C150.521 150.21 149.31 149.002 147.833 149.002L147.846 148.975Z" fill="white"/>
<path d="M202.157 149.861C201.651 149.297 200.919 148.975 200.16 148.975H194.077C192.692 148.975 191.521 150.049 191.388 151.444L191.095 154.61C189.617 153.161 188.007 151.914 186.263 150.907C183.082 149.069 179.527 148.13 175.707 148.13C171.66 148.13 168 149.083 164.831 150.948C161.663 152.826 159.134 155.442 157.337 158.729C155.553 161.989 154.635 165.813 154.635 170.079C154.635 174.346 155.54 178.103 157.337 181.363C159.134 184.65 161.663 187.266 164.831 189.144C168 191.009 171.66 191.962 175.707 191.962C179.527 191.962 183.082 191.036 186.263 189.184C188.02 188.178 189.631 186.931 191.095 185.468L191.388 188.648C191.521 190.043 192.679 191.116 194.077 191.116H200.16C200.919 191.116 201.638 190.794 202.157 190.231C202.663 189.667 202.916 188.903 202.849 188.151L201.132 170.093L202.849 151.967C202.916 151.203 202.676 150.451 202.157 149.888V149.861ZM176.692 181.497C174.575 181.497 172.792 181.041 171.221 180.088C169.65 179.136 168.439 177.848 167.52 176.144C166.602 174.426 166.136 172.387 166.136 170.066C166.136 167.745 166.602 165.639 167.52 163.921C168.439 162.217 169.65 160.93 171.221 159.977C172.792 159.024 174.589 158.568 176.692 158.568C178.795 158.568 180.752 159.051 182.549 160.031C184.399 161.05 186.09 162.499 187.568 164.337C188.885 165.987 190.017 167.906 190.922 170.053C190.017 172.172 188.885 174.064 187.568 175.728C186.09 177.566 184.413 179.015 182.549 180.034C180.752 181.014 178.835 181.497 176.692 181.497Z" fill="white"/>
<path d="M249.573 171.717H243.489C242.211 171.717 241.106 172.629 240.854 173.89C240.388 176.198 239.203 177.982 237.206 179.364C235.076 180.84 232.507 181.551 229.326 181.551C226.85 181.551 224.707 181.068 222.936 180.115C221.206 179.176 219.914 177.915 218.969 176.225C218.024 174.521 217.532 172.441 217.532 170.053C217.532 167.665 218.011 165.478 218.956 163.801C219.888 162.137 221.192 160.876 222.923 159.937C224.693 158.984 226.85 158.501 229.312 158.501C232.454 158.501 235.01 159.213 237.14 160.675C239.123 162.043 240.334 163.855 240.84 166.202C241.106 167.45 242.211 168.349 243.476 168.349H249.559C250.345 168.349 251.103 168 251.609 167.397C252.128 166.793 252.341 165.988 252.222 165.196C251.662 161.748 250.278 158.703 248.082 156.14C245.952 153.645 243.236 151.659 240.002 150.237C236.807 148.828 233.213 148.117 229.326 148.117C224.853 148.117 220.833 149.043 217.372 150.868C213.871 152.719 211.076 155.322 209.079 158.595C207.082 161.882 206.057 165.733 206.057 170.053C206.057 174.373 207.069 178.157 209.079 181.444C211.076 184.717 213.858 187.32 217.372 189.171C220.833 190.996 224.853 191.922 229.326 191.922C233.213 191.922 236.793 191.224 239.988 189.842C243.236 188.447 245.965 186.434 248.095 183.885C250.278 181.283 251.662 178.237 252.222 174.843C252.355 174.051 252.128 173.246 251.623 172.642C251.117 172.039 250.358 171.69 249.573 171.69V171.717Z" fill="white"/>
<path d="M290.253 148.975H252.741C251.25 148.975 250.052 150.196 250.052 151.686V156.569C250.052 158.072 251.263 159.279 252.741 159.279H265.892V188.366C265.892 189.869 267.104 191.076 268.581 191.076H274.465C275.956 191.076 277.154 189.855 277.154 188.366V159.279H290.239C291.73 159.279 292.928 158.058 292.928 156.569V151.686C292.928 150.183 291.717 148.975 290.239 148.975H290.253Z" fill="white"/>
<path d="M337.082 148.975H329.388C328.59 148.975 327.831 149.338 327.325 149.955L306.413 175.137V151.699C306.413 150.196 305.201 148.989 303.724 148.989H297.906C296.416 148.989 295.218 150.21 295.218 151.699V188.393C295.218 189.896 296.429 191.103 297.906 191.103H305.414C306.213 191.103 306.972 190.741 307.477 190.124L328.523 164.767V188.379C328.523 189.882 329.734 191.09 331.212 191.09H337.096C338.587 191.09 339.785 189.869 339.785 188.379V151.686C339.785 150.183 338.573 148.975 337.096 148.975H337.082Z" fill="white"/>
</svg>
